<svg xmlns="http://www.w3.org/2000/svg" width="1900" height="980" viewBox="0 0 1900 980">
<rect width="100%" height="100%" fill="#f6f4ed" />
<style>text { font-family: Segoe UI, Arial, sans-serif; fill: #1f2933; } .title { font-size: 28px; font-weight: 700; } .subtitle { font-size: 14px; fill: #52606d; } .grid { stroke: #d9d5c9; stroke-width: 1; } .ref { fill: #b8bfc6; opacity: 0.8; } .latent { fill: #d94841; opacity: 0.92; } .anchor { fill: #0f4c81; } .label { font-size: 9px; } .legend { font-size: 12px; }</style>
<text x="60" y="30" class="title">Latent Geodesic Migration Map</text>
<text x="60" y="48" class="subtitle">Gray = World Bank capital coordinates. Red = latent PPML coordinates. Fixed anchors: USA, CHN.</text>
<line x1="208.33" y1="50" x2="208.33" y2="930" class="grid" />
<text x="208.33" y="948" text-anchor="middle" class="legend">-150</text>
<line x1="356.67" y1="50" x2="356.67" y2="930" class="grid" />
<text x="356.67" y="948" text-anchor="middle" class="legend">-120</text>
<line x1="505.00" y1="50" x2="505.00" y2="930" class="grid" />
<text x="505.00" y="948" text-anchor="middle" class="legend">-90</text>
<line x1="653.33" y1="50" x2="653.33" y2="930" class="grid" />
<text x="653.33" y="948" text-anchor="middle" class="legend">-60</text>
<line x1="801.67" y1="50" x2="801.67" y2="930" class="grid" />
<text x="801.67" y="948" text-anchor="middle" class="legend">-30</text>
<line x1="950.00" y1="50" x2="950.00" y2="930" class="grid" />
<text x="950.00" y="948" text-anchor="middle" class="legend">0</text>
<line x1="1098.33" y1="50" x2="1098.33" y2="930" class="grid" />
<text x="1098.33" y="948" text-anchor="middle" class="legend">30</text>
<line x1="1246.67" y1="50" x2="1246.67" y2="930" class="grid" />
<text x="1246.67" y="948" text-anchor="middle" class="legend">60</text>
<line x1="1395.00" y1="50" x2="1395.00" y2="930" class="grid" />
<text x="1395.00" y="948" text-anchor="middle" class="legend">90</text>
<line x1="1543.33" y1="50" x2="1543.33" y2="930" class="grid" />
<text x="1543.33" y="948" text-anchor="middle" class="legend">120</text>
<line x1="1691.67" y1="50" x2="1691.67" y2="930" class="grid" />
<text x="1691.67" y="948" text-anchor="middle" class="legend">150</text>
<line x1="1840.00" y1="50" x2="1840.00" y2="930" class="grid" />
<text x="1840.00" y="948" text-anchor="middle" class="legend">180</text>
<line x1="60" y1="783.33" x2="1840" y2="783.33" class="grid" />
<text x="52" y="787.33" text-anchor="end" class="legend">-60</text>
<line x1="60" y1="636.67" x2="1840" y2="636.67" class="grid" />
<text x="52" y="640.67" text-anchor="end" class="legend">-30</text>
<line x1="60" y1="490.00" x2="1840" y2="490.00" class="grid" />
<text x="52" y="494.00" text-anchor="end" class="legend">0</text>
<line x1="60" y1="343.33" x2="1840" y2="343.33" class="grid" />
<text x="52" y="347.33" text-anchor="end" class="legend">30</text>
<line x1="60" y1="196.67" x2="1840" y2="196.67" class="grid" />
<text x="52" y="200.67" text-anchor="end" class="legend">60</text>
<line x1="60" y1="50.00" x2="1840" y2="50.00" class="grid" />
<text x="52" y="54.00" text-anchor="end" class="legend">90</text>
<line x1="603.81" y1="428.81" x2="613.57" y2="441.34" stroke="#c1c7cd" stroke-width="1.0" opacity="0.7" />
<circle cx="603.81" cy="428.81" r="2.2" class="ref" />
<circle cx="613.57" cy="441.34" r="2.8" class="latent" />
<line x1="1292.04" y1="321.22" x2="1308.70" y2="307.55" stroke="#c1c7cd" stroke-width="1.0" opacity="0.7" />
<circle cx="1292.04" cy="321.22" r="2.2" class="ref" />
<circle cx="1308.70" cy="307.55" r="2.8" class="latent" />
<line x1="1015.47" y1="533.08" x2="1053.34" y2="518.62" stroke="#c1c7cd" stroke-width="1.0" opacity="0.7" />
<circle cx="1015.47" cy="533.08" r="2.2" class="ref" />
<circle cx="1053.34" cy="518.62" r="2.8" class="latent" />
<line x1="1047.99" y1="287.93" x2="964.51" y2="261.75" stroke="#c1c7cd" stroke-width="1.0" opacity="0.7" />
<circle cx="1047.99" cy="287.93" r="2.2" class="ref" />
<circle cx="964.51" cy="261.75" r="2.8" class="latent" />
<line x1="957.52" y1="282.19" x2="924.58" y2="291.83" stroke="#c1c7cd" stroke-width="1.0" opacity="0.7" />
<circle cx="957.52" cy="282.19" r="2.2" class="ref" />
<circle cx="924.58" cy="291.83" r="2.8" class="latent" />
<line x1="1218.83" y1="370.34" x2="1313.99" y2="354.81" stroke="#c1c7cd" stroke-width="1.0" opacity="0.7" />
<circle cx="1218.83" cy="370.34" r="2.2" class="ref" />
<circle cx="1313.99" cy="354.81" r="2.8" class="latent" />
<line x1="661.16" y1="659.21" x2="746.10" y2="627.08" stroke="#c1c7cd" stroke-width="1.0" opacity="0.7" />
<circle cx="661.16" cy="659.21" r="2.2" class="ref" />
<circle cx="746.10" cy="627.08" r="2.8" class="latent" />
<text x="750.10" y="623.08" class="label">ARG</text>
<line x1="1170.07" y1="293.66" x2="1188.14" y2="292.54" stroke="#c1c7cd" stroke-width="1.0" opacity="0.7" />
<circle cx="1170.07" cy="293.66" r="2.2" class="ref" />
<circle cx="1188.14" cy="292.54" r="2.8" class="latent" />
<line x1="644.21" y1="406.31" x2="634.81" y2="415.84" stroke="#c1c7cd" stroke-width="1.0" opacity="0.7" />
<circle cx="644.21" cy="406.31" r="2.2" class="ref" />
<circle cx="634.81" cy="415.84" r="2.8" class="latent" />
<line x1="1687.36" y1="662.49" x2="1539.41" y2="412.82" stroke="#c1c7cd" stroke-width="1.0" opacity="0.7" />
<circle cx="1687.36" cy="662.49" r="2.2" class="ref" />
<circle cx="1539.41" cy="412.82" r="2.8" class="latent" />
<text x="1543.41" y="408.82" class="label">AUS</text>
<line x1="1030.99" y1="254.26" x2="869.32" y2="284.00" stroke="#c1c7cd" stroke-width="1.0" opacity="0.7" />
<circle cx="1030.99" cy="254.26" r="2.2" class="ref" />
<circle cx="869.32" cy="284.00" r="2.8" class="latent" />
<line x1="1196.69" y1="292.57" x2="1178.72" y2="293.65" stroke="#c1c7cd" stroke-width="1.0" opacity="0.7" />
<circle cx="1196.69" cy="292.57" r="2.2" class="ref" />
<circle cx="1178.72" cy="293.65" r="2.8" class="latent" />
<line x1="1095.19" y1="506.52" x2="1070.45" y2="540.69" stroke="#c1c7cd" stroke-width="1.0" opacity="0.7" />
<circle cx="1095.19" cy="506.52" r="2.2" class="ref" />
<circle cx="1070.45" cy="540.69" r="2.8" class="latent" />
<line x1="971.60" y1="241.46" x2="789.53" y2="299.84" stroke="#c1c7cd" stroke-width="1.0" opacity="0.7" />
<circle cx="971.60" cy="241.46" r="2.2" class="ref" />
<circle cx="789.53" cy="299.84" r="2.8" class="latent" />
<text x="793.53" y="295.84" class="label">BEL</text>
<line x1="963.02" y1="458.33" x2="912.83" y2="516.36" stroke="#c1c7cd" stroke-width="1.0" opacity="0.7" />
<circle cx="963.02" cy="458.33" r="2.2" class="ref" />
<circle cx="912.83" cy="516.36" r="2.8" class="latent" />
<line x1="942.42" y1="429.57" x2="911.86" y2="476.00" stroke="#c1c7cd" stroke-width="1.0" opacity="0.7" />
<circle cx="942.42" cy="429.57" r="2.2" class="ref" />
<circle cx="911.86" cy="476.00" r="2.8" class="latent" />
<line x1="1397.03" y1="374.11" x2="1299.27" y2="348.69" stroke="#c1c7cd" stroke-width="1.0" opacity="0.7" />
<circle cx="1397.03" cy="374.11" r="2.2" class="ref" />
<circle cx="1299.27" cy="348.69" r="2.8" class="latent" />
<text x="1303.27" y="344.69" class="label">BGD</text>
<line x1="1065.32" y1="281.19" x2="1023.93" y2="376.64" stroke="#c1c7cd" stroke-width="1.0" opacity="0.7" />
<circle cx="1065.32" cy="281.19" r="2.2" class="ref" />
<circle cx="1023.93" cy="376.64" r="2.8" class="latent" />
<text x="1027.93" y="372.64" class="label">BGR</text>
<line x1="1199.87" y1="361.95" x2="1345.94" y2="355.77" stroke="#c1c7cd" stroke-width="1.0" opacity="0.7" />
<circle cx="1199.87" cy="361.95" r="2.2" class="ref" />
<circle cx="1345.94" cy="355.77" r="2.8" class="latent" />
<line x1="567.60" y1="367.45" x2="565.56" y2="388.41" stroke="#c1c7cd" stroke-width="1.0" opacity="0.7" />
<circle cx="567.60" cy="367.45" r="2.2" class="ref" />
<circle cx="565.56" cy="388.41" r="2.8" class="latent" />
<line x1="1041.08" y1="275.57" x2="1019.96" y2="286.11" stroke="#c1c7cd" stroke-width="1.0" opacity="0.7" />
<circle cx="1041.08" cy="275.57" r="2.2" class="ref" />
<circle cx="1019.96" cy="286.11" r="2.8" class="latent" />
<line x1="1086.35" y1="226.16" x2="1058.66" y2="210.38" stroke="#c1c7cd" stroke-width="1.0" opacity="0.7" />
<circle cx="1086.35" cy="226.16" r="2.2" class="ref" />
<circle cx="1058.66" cy="210.38" r="2.8" class="latent" />
<line x1="511.08" y1="405.65" x2="506.51" y2="432.52" stroke="#c1c7cd" stroke-width="1.0" opacity="0.7" />
<circle cx="511.08" cy="405.65" r="2.2" class="ref" />
<circle cx="506.51" cy="432.52" r="2.8" class="latent" />
<line x1="630.06" y1="331.95" x2="652.09" y2="354.12" stroke="#c1c7cd" stroke-width="1.0" opacity="0.7" />
<circle cx="630.06" cy="331.95" r="2.2" class="ref" />
<circle cx="652.09" cy="354.12" r="2.8" class="latent" />
<line x1="622.71" y1="558.40" x2="653.51" y2="620.74" stroke="#c1c7cd" stroke-width="1.0" opacity="0.7" />
<circle cx="622.71" cy="558.40" r="2.2" class="ref" />
<circle cx="653.51" cy="620.74" r="2.8" class="latent" />
<text x="657.51" y="616.74" class="label">BOL</text>
<line x1="713.02" y1="567.15" x2="482.83" y2="765.90" stroke="#c1c7cd" stroke-width="1.0" opacity="0.7" />
<circle cx="713.02" cy="567.15" r="2.2" class="ref" />
<circle cx="482.83" cy="765.90" r="2.8" class="latent" />
<text x="486.83" y="761.90" class="label">BRA</text>
<line x1="655.26" y1="425.99" x2="665.19" y2="451.61" stroke="#c1c7cd" stroke-width="1.0" opacity="0.7" />
<circle cx="655.26" cy="425.99" r="2.2" class="ref" />
<circle cx="665.19" cy="451.61" r="2.8" class="latent" />
<line x1="1518.34" y1="465.84" x2="1503.42" y2="503.83" stroke="#c1c7cd" stroke-width="1.0" opacity="0.7" />
<circle cx="1518.34" cy="465.84" r="2.2" class="ref" />
<circle cx="1503.42" cy="503.83" r="2.8" class="latent" />
<line x1="1393.11" y1="355.18" x2="1366.70" y2="401.68" stroke="#c1c7cd" stroke-width="1.0" opacity="0.7" />
<circle cx="1393.11" cy="355.18" r="2.2" class="ref" />
<circle cx="1366.70" cy="401.68" r="2.8" class="latent" />
<line x1="1078.16" y1="610.53" x2="1060.04" y2="649.53" stroke="#c1c7cd" stroke-width="1.0" opacity="0.7" />
<circle cx="1078.16" cy="610.53" r="2.2" class="ref" />
<circle cx="1060.04" cy="649.53" r="2.8" class="latent" />
<line x1="1057.00" y1="462.47" x2="1069.75" y2="528.22" stroke="#c1c7cd" stroke-width="1.0" opacity="0.7" />
<circle cx="1057.00" cy="462.47" r="2.2" class="ref" />
<circle cx="1069.75" cy="528.22" r="2.8" class="latent" />
<line x1="575.75" y1="267.94" x2="545.97" y2="62.30" stroke="#c1c7cd" stroke-width="1.0" opacity="0.7" />
<circle cx="575.75" cy="267.94" r="2.2" class="ref" />
<circle cx="545.97" cy="62.30" r="2.8" class="latent" />
<text x="549.97" y="58.30" class="label">CAN</text>
<line x1="986.83" y1="260.48" x2="1265.87" y2="205.76" stroke="#c1c7cd" stroke-width="1.0" opacity="0.7" />
<circle cx="986.83" cy="260.48" r="2.2" class="ref" />
<circle cx="1265.87" cy="205.76" r="2.8" class="latent" />
<text x="1269.87" y="201.76" class="label">CHE</text>
<line x1="600.69" y1="653.66" x2="538.57" y2="576.10" stroke="#c1c7cd" stroke-width="1.0" opacity="0.7" />
<circle cx="600.69" cy="653.66" r="2.2" class="ref" />
<circle cx="538.57" cy="576.10" r="2.8" class="latent" />
<text x="542.57" y="572.10" class="label">CHL</text>
<line x1="1524.97" y1="294.20" x2="1524.97" y2="294.20" stroke="#7b8794" stroke-width="1.8" opacity="0.7" />
<circle cx="1524.97" cy="294.20" r="2.2" class="anchor" />
<circle cx="1524.97" cy="294.20" r="2.8" class="anchor" />
<text x="1528.97" y="290.20" class="label">CHN</text>
<line x1="930.07" y1="463.93" x2="906.40" y2="471.38" stroke="#c1c7cd" stroke-width="1.0" opacity="0.7" />
<circle cx="930.07" cy="463.93" r="2.2" class="ref" />
<circle cx="906.40" cy="471.38" r="2.8" class="latent" />
<line x1="1006.95" y1="471.07" x2="1019.01" y2="544.14" stroke="#c1c7cd" stroke-width="1.0" opacity="0.7" />
<circle cx="1006.95" cy="471.07" r="2.2" class="ref" />
<circle cx="1019.01" cy="544.14" r="2.8" class="latent" />
<line x1="1025.76" y1="511.14" x2="1052.78" y2="532.28" stroke="#c1c7cd" stroke-width="1.0" opacity="0.7" />
<circle cx="1025.76" cy="511.14" r="2.2" class="ref" />
<circle cx="1052.78" cy="532.28" r="2.8" class="latent" />
<line x1="1025.48" y1="510.91" x2="1087.16" y2="540.87" stroke="#c1c7cd" stroke-width="1.0" opacity="0.7" />
<circle cx="1025.48" cy="510.91" r="2.2" class="ref" />
<circle cx="1087.16" cy="540.87" r="2.8" class="latent" />
<line x1="583.71" y1="467.46" x2="644.49" y2="513.95" stroke="#c1c7cd" stroke-width="1.0" opacity="0.7" />
<circle cx="583.71" cy="467.46" r="2.2" class="ref" />
<circle cx="644.49" cy="513.95" r="2.8" class="latent" />
<text x="648.49" y="509.95" class="label">COL</text>
<line x1="1163.81" y1="547.19" x2="1168.30" y2="573.00" stroke="#c1c7cd" stroke-width="1.0" opacity="0.7" />
<circle cx="1163.81" cy="547.19" r="2.2" class="ref" />
<circle cx="1168.30" cy="573.00" r="2.8" class="latent" />
<line x1="833.76" y1="417.05" x2="851.44" y2="434.56" stroke="#c1c7cd" stroke-width="1.0" opacity="0.7" />
<circle cx="833.76" cy="417.05" r="2.2" class="ref" />
<circle cx="851.44" cy="434.56" r="2.8" class="latent" />
<line x1="534.62" y1="442.89" x2="485.09" y2="396.18" stroke="#c1c7cd" stroke-width="1.0" opacity="0.7" />
<circle cx="534.62" cy="442.89" r="2.2" class="ref" />
<circle cx="485.09" cy="396.18" r="2.8" class="latent" />
<line x1="547.59" y1="395.63" x2="533.14" y2="411.43" stroke="#c1c7cd" stroke-width="1.0" opacity="0.7" />
<circle cx="547.59" cy="395.63" r="2.2" class="ref" />
<circle cx="533.14" cy="411.43" r="2.8" class="latent" />
<line x1="1115.01" y1="318.07" x2="1177.99" y2="370.77" stroke="#c1c7cd" stroke-width="1.0" opacity="0.7" />
<circle cx="1115.01" cy="318.07" r="2.2" class="ref" />
<circle cx="1177.99" cy="370.77" r="2.8" class="latent" />
<line x1="1021.30" y1="245.13" x2="893.70" y2="213.70" stroke="#c1c7cd" stroke-width="1.0" opacity="0.7" />
<circle cx="1021.30" cy="245.13" r="2.2" class="ref" />
<circle cx="893.70" cy="213.70" r="2.8" class="latent" />
<line x1="1016.31" y1="233.22" x2="1052.67" y2="293.32" stroke="#c1c7cd" stroke-width="1.0" opacity="0.7" />
<circle cx="1016.31" cy="233.22" r="2.2" class="ref" />
<circle cx="1052.67" cy="293.32" r="2.8" class="latent" />
<text x="1056.67" y="289.32" class="label">DEU</text>
<line x1="1163.32" y1="433.38" x2="1134.79" y2="445.35" stroke="#c1c7cd" stroke-width="1.0" opacity="0.7" />
<circle cx="1163.32" cy="433.38" r="2.2" class="ref" />
<circle cx="1134.79" cy="445.35" r="2.8" class="latent" />
<line x1="646.46" y1="415.21" x2="640.27" y2="421.49" stroke="#c1c7cd" stroke-width="1.0" opacity="0.7" />
<circle cx="646.46" cy="415.21" r="2.2" class="ref" />
<circle cx="640.27" cy="421.49" r="2.8" class="latent" />
<line x1="1012.14" y1="217.80" x2="774.29" y2="224.80" stroke="#c1c7cd" stroke-width="1.0" opacity="0.7" />
<circle cx="1012.14" cy="217.80" r="2.2" class="ref" />
<circle cx="774.29" cy="224.80" r="2.8" class="latent" />
<line x1="604.43" y1="399.66" x2="610.03" y2="333.21" stroke="#c1c7cd" stroke-width="1.0" opacity="0.7" />
<circle cx="604.43" cy="399.66" r="2.2" class="ref" />
<circle cx="610.03" cy="333.21" r="2.8" class="latent" />
<text x="614.03" y="329.21" class="label">DOM</text>
<line x1="965.09" y1="310.38" x2="685.47" y2="388.78" stroke="#c1c7cd" stroke-width="1.0" opacity="0.7" />
<circle cx="965.09" cy="310.38" r="2.2" class="ref" />
<circle cx="685.47" cy="388.78" r="2.8" class="latent" />
<text x="689.47" y="384.78" class="label">DZA</text>
<line x1="561.74" y1="491.12" x2="702.91" y2="418.19" stroke="#c1c7cd" stroke-width="1.0" opacity="0.7" />
<circle cx="561.74" cy="491.12" r="2.2" class="ref" />
<circle cx="702.91" cy="418.19" r="2.8" class="latent" />
<text x="706.91" y="414.19" class="label">ECU</text>
<line x1="1104.49" y1="342.85" x2="1224.52" y2="408.66" stroke="#c1c7cd" stroke-width="1.0" opacity="0.7" />
<circle cx="1104.49" cy="342.85" r="2.2" class="ref" />
<circle cx="1224.52" cy="408.66" r="2.8" class="latent" />
<line x1="931.69" y1="292.41" x2="884.10" y2="340.27" stroke="#c1c7cd" stroke-width="1.0" opacity="0.7" />
<circle cx="931.69" cy="292.41" r="2.2" class="ref" />
<circle cx="884.10" cy="340.27" r="2.8" class="latent" />
<text x="888.10" y="336.27" class="label">ESP</text>
<line x1="1072.42" y1="199.41" x2="1156.24" y2="80.68" stroke="#c1c7cd" stroke-width="1.0" opacity="0.7" />
<circle cx="1072.42" cy="199.41" r="2.2" class="ref" />
<circle cx="1156.24" cy="80.68" r="2.8" class="latent" />
<line x1="1141.58" y1="445.89" x2="1133.14" y2="475.63" stroke="#c1c7cd" stroke-width="1.0" opacity="0.7" />
<circle cx="1141.58" cy="445.89" r="2.2" class="ref" />
<circle cx="1133.14" cy="475.63" r="2.8" class="latent" />
<line x1="1073.38" y1="195.88" x2="1678.93" y2="123.09" stroke="#c1c7cd" stroke-width="1.0" opacity="0.7" />
<circle cx="1073.38" cy="195.88" r="2.2" class="ref" />
<circle cx="1678.93" cy="123.09" r="2.8" class="latent" />
<text x="1682.93" y="119.09" class="label">FIN</text>
<line x1="1832.08" y1="578.56" x2="1734.63" y2="528.76" stroke="#c1c7cd" stroke-width="1.0" opacity="0.7" />
<circle cx="1832.08" cy="578.56" r="2.2" class="ref" />
<circle cx="1734.63" cy="528.76" r="2.8" class="latent" />
<line x1="961.62" y1="251.15" x2="783.50" y2="451.38" stroke="#c1c7cd" stroke-width="1.0" opacity="0.7" />
<circle cx="961.62" cy="251.15" r="2.2" class="ref" />
<circle cx="783.50" cy="451.38" r="2.8" class="latent" />
<text x="787.50" y="447.38" class="label">FRA</text>
<line x1="915.82" y1="187.41" x2="912.46" y2="177.34" stroke="#c1c7cd" stroke-width="1.0" opacity="0.7" />
<circle cx="915.82" cy="187.41" r="2.2" class="ref" />
<circle cx="912.46" cy="177.34" r="2.8" class="latent" />
<line x1="1732.14" y1="456.18" x2="1733.06" y2="460.40" stroke="#c1c7cd" stroke-width="1.0" opacity="0.7" />
<circle cx="1732.14" cy="456.18" r="2.2" class="ref" />
<circle cx="1733.06" cy="460.40" r="2.8" class="latent" />
<line x1="996.73" y1="488.10" x2="996.66" y2="499.77" stroke="#c1c7cd" stroke-width="1.0" opacity="0.7" />
<circle cx="996.73" cy="488.10" r="2.2" class="ref" />
<circle cx="996.66" cy="499.77" r="2.8" class="latent" />
<line x1="949.38" y1="238.22" x2="1121.37" y2="178.08" stroke="#c1c7cd" stroke-width="1.0" opacity="0.7" />
<circle cx="949.38" cy="238.22" r="2.2" class="ref" />
<circle cx="1121.37" cy="178.08" r="2.8" class="latent" />
<text x="1125.37" y="174.08" class="label">GBR</text>
<line x1="1171.48" y1="286.08" x2="1164.24" y2="276.97" stroke="#c1c7cd" stroke-width="1.0" opacity="0.7" />
<circle cx="1171.48" cy="286.08" r="2.2" class="ref" />
<circle cx="1164.24" cy="276.97" r="2.8" class="latent" />
<line x1="948.97" y1="462.77" x2="903.35" y2="496.94" stroke="#c1c7cd" stroke-width="1.0" opacity="0.7" />
<circle cx="948.97" cy="462.77" r="2.2" class="ref" />
<circle cx="903.35" cy="496.94" r="2.8" class="latent" />
<line x1="882.26" y1="443.47" x2="895.47" y2="457.56" stroke="#c1c7cd" stroke-width="1.0" opacity="0.7" />
<circle cx="882.26" cy="443.47" r="2.2" class="ref" />
<circle cx="895.47" cy="457.56" r="2.8" class="latent" />
<line x1="867.98" y1="424.25" x2="961.45" y2="446.74" stroke="#c1c7cd" stroke-width="1.0" opacity="0.7" />
<circle cx="867.98" cy="424.25" r="2.2" class="ref" />
<circle cx="961.45" cy="446.74" r="2.8" class="latent" />
<text x="965.45" y="442.74" class="label">GMB</text>
<line x1="874.94" y1="432.29" x2="950.72" y2="441.70" stroke="#c1c7cd" stroke-width="1.0" opacity="0.7" />
<circle cx="874.94" cy="432.29" r="2.2" class="ref" />
<circle cx="950.72" cy="441.70" r="2.8" class="latent" />
<line x1="993.38" y1="471.66" x2="988.24" y2="493.55" stroke="#c1c7cd" stroke-width="1.0" opacity="0.7" />
<circle cx="993.38" cy="471.66" r="2.2" class="ref" />
<circle cx="988.24" cy="493.55" r="2.8" class="latent" />
<text x="992.24" y="489.55" class="label">GNQ</text>
<line x1="1067.27" y1="304.32" x2="975.47" y2="270.05" stroke="#c1c7cd" stroke-width="1.0" opacity="0.7" />
<circle cx="1067.27" cy="304.32" r="2.2" class="ref" />
<circle cx="975.47" cy="270.05" r="2.8" class="latent" />
<line x1="644.71" y1="431.01" x2="625.87" y2="457.80" stroke="#c1c7cd" stroke-width="1.0" opacity="0.7" />
<circle cx="644.71" cy="431.01" r="2.2" class="ref" />
<circle cx="625.87" cy="457.80" r="2.8" class="latent" />
<line x1="694.27" y1="176.21" x2="667.18" y2="174.00" stroke="#c1c7cd" stroke-width="1.0" opacity="0.7" />
<circle cx="694.27" cy="176.21" r="2.2" class="ref" />
<circle cx="667.18" cy="174.00" r="2.8" class="latent" />
<line x1="502.37" y1="418.50" x2="603.94" y2="255.03" stroke="#c1c7cd" stroke-width="1.0" opacity="0.7" />
<circle cx="502.37" cy="418.50" r="2.2" class="ref" />
<circle cx="603.94" cy="255.03" r="2.8" class="latent" />
<text x="607.94" y="251.03" class="label">GTM</text>
<line x1="662.46" y1="456.73" x2="631.20" y2="390.98" stroke="#c1c7cd" stroke-width="1.0" opacity="0.7" />
<circle cx="662.46" cy="456.73" r="2.2" class="ref" />
<circle cx="631.20" cy="390.98" r="2.8" class="latent" />
<line x1="1514.21" y1="380.51" x2="1624.42" y2="326.34" stroke="#c1c7cd" stroke-width="1.0" opacity="0.7" />
<circle cx="1514.21" cy="380.51" r="2.2" class="ref" />
<circle cx="1624.42" cy="326.34" r="2.8" class="latent" />
<line x1="517.53" y1="416.01" x2="527.57" y2="381.92" stroke="#c1c7cd" stroke-width="1.0" opacity="0.7" />
<circle cx="517.53" cy="416.01" r="2.2" class="ref" />
<circle cx="527.57" cy="381.92" r="2.8" class="latent" />
<text x="531.57" y="377.92" class="label">HND</text>
<line x1="1028.92" y1="266.06" x2="1004.86" y2="297.44" stroke="#c1c7cd" stroke-width="1.0" opacity="0.7" />
<circle cx="1028.92" cy="266.06" r="2.2" class="ref" />
<circle cx="1004.86" cy="297.44" r="2.8" class="latent" />
<line x1="592.37" y1="399.36" x2="606.63" y2="340.57" stroke="#c1c7cd" stroke-width="1.0" opacity="0.7" />
<circle cx="592.37" cy="399.36" r="2.2" class="ref" />
<circle cx="606.63" cy="340.57" r="2.8" class="latent" />
<line x1="1044.15" y1="257.79" x2="1009.30" y2="426.21" stroke="#c1c7cd" stroke-width="1.0" opacity="0.7" />
<circle cx="1044.15" cy="257.79" r="2.2" class="ref" />
<circle cx="1009.30" cy="426.21" r="2.8" class="latent" />
<text x="1013.30" y="422.21" class="label">HUN</text>
<line x1="1478.21" y1="520.30" x2="1398.55" y2="430.09" stroke="#c1c7cd" stroke-width="1.0" opacity="0.7" />
<circle cx="1478.21" cy="520.30" r="2.2" class="ref" />
<circle cx="1398.55" cy="430.09" r="2.8" class="latent" />
<line x1="1331.83" y1="350.01" x2="1304.85" y2="385.74" stroke="#c1c7cd" stroke-width="1.0" opacity="0.7" />
<circle cx="1331.83" cy="350.01" r="2.2" class="ref" />
<circle cx="1304.85" cy="385.74" r="2.8" class="latent" />
<text x="1308.85" y="381.74" class="label">IND</text>
<line x1="919.01" y1="229.21" x2="1466.97" y2="114.39" stroke="#c1c7cd" stroke-width="1.0" opacity="0.7" />
<circle cx="919.01" cy="229.21" r="2.2" class="ref" />
<circle cx="1466.97" cy="114.39" r="2.8" class="latent" />
<text x="1470.97" y="110.39" class="label">IRL</text>
<line x1="1204.37" y1="315.53" x2="1286.92" y2="293.34" stroke="#c1c7cd" stroke-width="1.0" opacity="0.7" />
<circle cx="1204.37" cy="315.53" r="2.2" class="ref" />
<circle cx="1286.92" cy="293.34" r="2.8" class="latent" />
<line x1="1169.50" y1="327.05" x2="1080.68" y2="357.89" stroke="#c1c7cd" stroke-width="1.0" opacity="0.7" />
<circle cx="1169.50" cy="327.05" r="2.2" class="ref" />
<circle cx="1080.68" cy="357.89" r="2.8" class="latent" />
<line x1="841.74" y1="176.45" x2="690.70" y2="149.98" stroke="#c1c7cd" stroke-width="1.0" opacity="0.7" />
<circle cx="841.74" cy="176.45" r="2.2" class="ref" />
<circle cx="690.70" cy="149.98" r="2.8" class="latent" />
<line x1="1124.06" y1="334.67" x2="1130.97" y2="309.03" stroke="#c1c7cd" stroke-width="1.0" opacity="0.7" />
<circle cx="1124.06" cy="334.67" r="2.2" class="ref" />
<circle cx="1130.97" cy="309.03" r="2.8" class="latent" />
<line x1="1011.72" y1="285.18" x2="949.31" y2="352.15" stroke="#c1c7cd" stroke-width="1.0" opacity="0.7" />
<circle cx="1011.72" cy="285.18" r="2.2" class="ref" />
<circle cx="949.31" cy="352.15" r="2.8" class="latent" />
<text x="953.31" y="348.15" class="label">ITA</text>
<line x1="570.31" y1="402.04" x2="512.34" y2="362.90" stroke="#c1c7cd" stroke-width="1.0" opacity="0.7" />
<circle cx="570.31" cy="402.04" r="2.2" class="ref" />
<circle cx="512.34" cy="362.90" r="2.8" class="latent" />
<line x1="1127.64" y1="333.80" x2="1072.79" y2="334.77" stroke="#c1c7cd" stroke-width="1.0" opacity="0.7" />
<circle cx="1127.64" cy="333.80" r="2.2" class="ref" />
<circle cx="1072.79" cy="334.77" r="2.8" class="latent" />
<line x1="1641.09" y1="315.61" x2="1810.47" y2="376.87" stroke="#c1c7cd" stroke-width="1.0" opacity="0.7" />
<circle cx="1641.09" cy="315.61" r="2.2" class="ref" />
<circle cx="1810.47" cy="376.87" r="2.8" class="latent" />
<text x="1814.47" y="372.87" class="label">JPN</text>
<line x1="1303.22" y1="239.75" x2="1233.07" y2="186.35" stroke="#c1c7cd" stroke-width="1.0" opacity="0.7" />
<circle cx="1303.22" cy="239.75" r="2.2" class="ref" />
<circle cx="1233.07" cy="186.35" r="2.8" class="latent" />
<line x1="1132.02" y1="496.26" x2="1103.51" y2="461.95" stroke="#c1c7cd" stroke-width="1.0" opacity="0.7" />
<circle cx="1132.02" cy="496.26" r="2.2" class="ref" />
<circle cx="1103.51" cy="461.95" r="2.8" class="latent" />
<line x1="1318.88" y1="280.34" x2="1291.66" y2="251.92" stroke="#c1c7cd" stroke-width="1.0" opacity="0.7" />
<circle cx="1318.88" cy="280.34" r="2.2" class="ref" />
<circle cx="1291.66" cy="251.92" r="2.8" class="latent" />
<line x1="1468.54" y1="433.51" x2="1507.53" y2="415.89" stroke="#c1c7cd" stroke-width="1.0" opacity="0.7" />
<circle cx="1468.54" cy="433.51" r="2.2" class="ref" />
<circle cx="1507.53" cy="415.89" r="2.8" class="latent" />
<line x1="1805.29" y1="483.50" x2="1787.90" y2="489.30" stroke="#c1c7cd" stroke-width="1.0" opacity="0.7" />
<circle cx="1805.29" cy="483.50" r="2.2" class="ref" />
<circle cx="1787.90" cy="489.30" r="2.8" class="latent" />
<line x1="639.83" y1="405.42" x2="651.64" y2="411.49" stroke="#c1c7cd" stroke-width="1.0" opacity="0.7" />
<circle cx="639.83" cy="405.42" r="2.2" class="ref" />
<circle cx="651.64" cy="411.49" r="2.8" class="latent" />
<line x1="1577.73" y1="306.51" x2="1811.40" y2="207.22" stroke="#c1c7cd" stroke-width="1.0" opacity="0.7" />
<circle cx="1577.73" cy="306.51" r="2.2" class="ref" />
<circle cx="1811.40" cy="207.22" r="2.8" class="latent" />
<text x="1815.40" y="203.22" class="label">KOR</text>
<line x1="1187.25" y1="346.40" x2="1306.26" y2="328.39" stroke="#c1c7cd" stroke-width="1.0" opacity="0.7" />
<circle cx="1187.25" cy="346.40" r="2.2" class="ref" />
<circle cx="1306.26" cy="328.39" r="2.8" class="latent" />
<line x1="1455.21" y1="399.15" x2="1465.42" y2="441.49" stroke="#c1c7cd" stroke-width="1.0" opacity="0.7" />
<circle cx="1455.21" cy="399.15" r="2.2" class="ref" />
<circle cx="1465.42" cy="441.49" r="2.8" class="latent" />
<line x1="1125.59" y1="324.33" x2="1062.37" y2="342.49" stroke="#c1c7cd" stroke-width="1.0" opacity="0.7" />
<circle cx="1125.59" cy="324.33" r="2.2" class="ref" />
<circle cx="1062.37" cy="342.49" r="2.8" class="latent" />
<line x1="896.62" y1="459.20" x2="895.39" y2="457.17" stroke="#c1c7cd" stroke-width="1.0" opacity="0.7" />
<circle cx="896.62" cy="459.20" r="2.2" class="ref" />
<circle cx="895.39" cy="457.17" r="2.8" class="latent" />
<line x1="1014.81" y1="329.36" x2="1093.43" y2="396.41" stroke="#c1c7cd" stroke-width="1.0" opacity="0.7" />
<circle cx="1014.81" cy="329.36" r="2.2" class="ref" />
<circle cx="1093.43" cy="396.41" r="2.8" class="latent" />
<line x1="648.47" y1="421.56" x2="659.57" y2="429.21" stroke="#c1c7cd" stroke-width="1.0" opacity="0.7" />
<circle cx="648.47" cy="421.56" r="2.2" class="ref" />
<circle cx="659.57" cy="429.21" r="2.8" class="latent" />
<line x1="1344.83" y1="456.16" x2="1254.90" y2="435.07" stroke="#c1c7cd" stroke-width="1.0" opacity="0.7" />
<circle cx="1344.83" cy="456.16" r="2.2" class="ref" />
<circle cx="1254.90" cy="435.07" r="2.8" class="latent" />
<line x1="1087.04" y1="634.32" x2="1104.62" y2="606.55" stroke="#c1c7cd" stroke-width="1.0" opacity="0.7" />
<circle cx="1087.04" cy="634.32" r="2.2" class="ref" />
<circle cx="1104.62" cy="606.55" r="2.8" class="latent" />
<line x1="1075.00" y1="222.63" x2="982.06" y2="157.79" stroke="#c1c7cd" stroke-width="1.0" opacity="0.7" />
<circle cx="1075.00" cy="222.63" r="2.2" class="ref" />
<circle cx="982.06" cy="157.79" r="2.8" class="latent" />
<line x1="980.31" y1="247.46" x2="911.21" y2="242.58" stroke="#c1c7cd" stroke-width="1.0" opacity="0.7" />
<circle cx="980.31" cy="247.46" r="2.2" class="ref" />
<circle cx="911.21" cy="242.58" r="2.8" class="latent" />
<line x1="1069.18" y1="211.59" x2="1009.35" y2="210.18" stroke="#c1c7cd" stroke-width="1.0" opacity="0.7" />
<circle cx="1069.18" cy="211.59" r="2.2" class="ref" />
<circle cx="1009.35" cy="210.18" r="2.8" class="latent" />
<line x1="916.03" y1="323.82" x2="880.01" y2="363.19" stroke="#c1c7cd" stroke-width="1.0" opacity="0.7" />
<circle cx="916.03" cy="323.82" r="2.2" class="ref" />
<circle cx="880.01" cy="363.19" r="2.8" class="latent" />
<text x="884.01" y="359.19" class="label">MAR</text>
<line x1="1092.65" y1="260.14" x2="1179.52" y2="259.68" stroke="#c1c7cd" stroke-width="1.0" opacity="0.7" />
<circle cx="1092.65" cy="260.14" r="2.2" class="ref" />
<circle cx="1179.52" cy="259.68" r="2.8" class="latent" />
<line x1="1176.04" y1="590.06" x2="1194.98" y2="630.28" stroke="#c1c7cd" stroke-width="1.0" opacity="0.7" />
<circle cx="1176.04" cy="590.06" r="2.2" class="ref" />
<circle cx="1194.98" cy="630.28" r="2.8" class="latent" />
<line x1="1313.47" y1="469.59" x2="1316.62" y2="450.79" stroke="#c1c7cd" stroke-width="1.0" opacity="0.7" />
<circle cx="1313.47" cy="469.59" r="2.2" class="ref" />
<circle cx="1316.62" cy="450.79" r="2.8" class="latent" />
<line x1="459.87" y1="395.02" x2="532.05" y2="299.98" stroke="#c1c7cd" stroke-width="1.0" opacity="0.7" />
<circle cx="459.87" cy="395.02" r="2.2" class="ref" />
<circle cx="532.05" cy="299.98" r="2.8" class="latent" />
<text x="536.05" y="295.98" class="label">MEX</text>
<line x1="1796.17" y1="455.24" x2="1794.94" y2="454.99" stroke="#c1c7cd" stroke-width="1.0" opacity="0.7" />
<circle cx="1796.17" cy="455.24" r="2.2" class="ref" />
<circle cx="1794.94" cy="454.99" r="2.8" class="latent" />
<line x1="1055.99" y1="284.65" x2="1037.99" y2="237.93" stroke="#c1c7cd" stroke-width="1.0" opacity="0.7" />
<circle cx="1055.99" cy="284.65" r="2.2" class="ref" />
<circle cx="1037.99" cy="237.93" r="2.8" class="latent" />
<line x1="912.91" y1="423.67" x2="929.84" y2="487.32" stroke="#c1c7cd" stroke-width="1.0" opacity="0.7" />
<circle cx="912.91" cy="423.67" r="2.2" class="ref" />
<circle cx="929.84" cy="487.32" r="2.8" class="latent" />
<text x="933.84" y="483.32" class="label">MLI</text>
<line x1="1021.79" y1="314.47" x2="988.68" y2="288.15" stroke="#c1c7cd" stroke-width="1.0" opacity="0.7" />
<circle cx="1021.79" cy="314.47" r="2.2" class="ref" />
<circle cx="988.68" cy="288.15" r="2.8" class="latent" />
<line x1="1424.45" y1="382.86" x2="1480.13" y2="427.91" stroke="#c1c7cd" stroke-width="1.0" opacity="0.7" />
<circle cx="1424.45" cy="382.86" r="2.2" class="ref" />
<circle cx="1480.13" cy="427.91" r="2.8" class="latent" />
<line x1="1478.74" y1="255.76" x2="1291.53" y2="175.73" stroke="#c1c7cd" stroke-width="1.0" opacity="0.7" />
<circle cx="1478.74" cy="255.76" r="2.2" class="ref" />
<circle cx="1291.53" cy="175.73" r="2.8" class="latent" />
<line x1="1111.05" y1="616.95" x2="1083.51" y2="593.77" stroke="#c1c7cd" stroke-width="1.0" opacity="0.7" />
<circle cx="1111.05" cy="616.95" r="2.2" class="ref" />
<circle cx="1083.51" cy="593.77" r="2.8" class="latent" />
<line x1="870.98" y1="400.84" x2="944.14" y2="493.23" stroke="#c1c7cd" stroke-width="1.0" opacity="0.7" />
<circle cx="870.98" cy="400.84" r="2.2" class="ref" />
<circle cx="944.14" cy="493.23" r="2.8" class="latent" />
<line x1="1234.29" y1="588.56" x2="1272.66" y2="615.83" stroke="#c1c7cd" stroke-width="1.0" opacity="0.7" />
<circle cx="1234.29" cy="588.56" r="2.2" class="ref" />
<circle cx="1272.66" cy="615.83" r="2.8" class="latent" />
<line x1="1116.98" y1="558.40" x2="1076.74" y2="583.78" stroke="#c1c7cd" stroke-width="1.0" opacity="0.7" />
<circle cx="1116.98" cy="558.40" r="2.2" class="ref" />
<circle cx="1076.74" cy="583.78" r="2.8" class="latent" />
<line x1="1452.77" y1="474.73" x2="1366.24" y2="397.24" stroke="#c1c7cd" stroke-width="1.0" opacity="0.7" />
<circle cx="1452.77" cy="474.73" r="2.2" class="ref" />
<circle cx="1366.24" cy="397.24" r="2.8" class="latent" />
<line x1="1034.52" y1="600.32" x2="977.73" y2="584.15" stroke="#c1c7cd" stroke-width="1.0" opacity="0.7" />
<circle cx="1034.52" cy="600.32" r="2.2" class="ref" />
<circle cx="977.73" cy="584.15" r="2.8" class="latent" />
<line x1="960.42" y1="423.93" x2="909.63" y2="542.94" stroke="#c1c7cd" stroke-width="1.0" opacity="0.7" />
<circle cx="960.42" cy="423.93" r="2.2" class="ref" />
<circle cx="909.63" cy="542.94" r="2.8" class="latent" />
<line x1="987.03" y1="445.72" x2="933.64" y2="517.15" stroke="#c1c7cd" stroke-width="1.0" opacity="0.7" />
<circle cx="987.03" cy="445.72" r="2.2" class="ref" />
<circle cx="933.64" cy="517.15" r="2.8" class="latent" />
<line x1="523.43" y1="430.61" x2="463.07" y2="392.07" stroke="#c1c7cd" stroke-width="1.0" opacity="0.7" />
<circle cx="523.43" cy="430.61" r="2.2" class="ref" />
<circle cx="463.07" cy="392.07" r="2.8" class="latent" />
<text x="467.07" y="388.07" class="label">NIC</text>
<line x1="974.18" y1="233.95" x2="807.68" y2="146.68" stroke="#c1c7cd" stroke-width="1.0" opacity="0.7" />
<circle cx="974.18" cy="233.95" r="2.2" class="ref" />
<circle cx="807.68" cy="146.68" r="2.8" class="latent" />
<text x="811.68" y="142.68" class="label">NLD</text>
<line x1="1003.10" y1="197.09" x2="407.10" y2="132.80" stroke="#c1c7cd" stroke-width="1.0" opacity="0.7" />
<circle cx="1003.10" cy="197.09" r="2.2" class="ref" />
<circle cx="407.10" cy="132.80" r="2.8" class="latent" />
<text x="411.10" y="128.80" class="label">NOR</text>
<line x1="1371.84" y1="354.61" x2="1366.41" y2="389.07" stroke="#c1c7cd" stroke-width="1.0" opacity="0.7" />
<circle cx="1371.84" cy="354.61" r="2.2" class="ref" />
<circle cx="1366.41" cy="389.07" r="2.8" class="latent" />
<line x1="1775.33" y1="492.68" x2="1787.21" y2="494.19" stroke="#c1c7cd" stroke-width="1.0" opacity="0.7" />
<circle cx="1775.33" cy="492.68" r="2.2" class="ref" />
<circle cx="1787.21" cy="494.19" r="2.8" class="latent" />
<line x1="1814.17" y1="691.85" x2="1578.44" y2="453.41" stroke="#c1c7cd" stroke-width="1.0" opacity="0.7" />
<circle cx="1814.17" cy="691.85" r="2.2" class="ref" />
<circle cx="1578.44" cy="453.41" r="2.8" class="latent" />
<text x="1582.44" y="449.41" class="label">NZL</text>
<line x1="1239.68" y1="374.57" x2="1307.17" y2="341.33" stroke="#c1c7cd" stroke-width="1.0" opacity="0.7" />
<circle cx="1239.68" cy="374.57" r="2.2" class="ref" />
<circle cx="1307.17" cy="341.33" r="2.8" class="latent" />
<line x1="1309.96" y1="340.81" x2="1294.41" y2="317.74" stroke="#c1c7cd" stroke-width="1.0" opacity="0.7" />
<circle cx="1309.96" cy="340.81" r="2.2" class="ref" />
<circle cx="1294.41" cy="317.74" r="2.8" class="latent" />
<text x="1298.41" y="313.74" class="label">PAK</text>
<line x1="556.82" y1="446.03" x2="472.85" y2="480.47" stroke="#c1c7cd" stroke-width="1.0" opacity="0.7" />
<circle cx="556.82" cy="446.03" r="2.2" class="ref" />
<circle cx="472.85" cy="480.47" r="2.8" class="latent" />
<line x1="569.05" y1="549.12" x2="583.59" y2="420.32" stroke="#c1c7cd" stroke-width="1.0" opacity="0.7" />
<circle cx="569.05" cy="549.12" r="2.2" class="ref" />
<circle cx="583.59" cy="420.32" r="2.8" class="latent" />
<text x="587.59" y="416.32" class="label">PER</text>
<line x1="1548.45" y1="418.86" x2="1347.69" y2="287.44" stroke="#c1c7cd" stroke-width="1.0" opacity="0.7" />
<circle cx="1548.45" cy="418.86" r="2.2" class="ref" />
<circle cx="1347.69" cy="287.44" r="2.8" class="latent" />
<text x="1351.69" y="283.44" class="label">PHL</text>
<line x1="1614.92" y1="454.11" x2="1623.91" y2="457.59" stroke="#c1c7cd" stroke-width="1.0" opacity="0.7" />
<circle cx="1614.92" cy="454.11" r="2.2" class="ref" />
<circle cx="1623.91" cy="457.59" r="2.8" class="latent" />
<line x1="1677.79" y1="536.32" x2="1556.93" y2="452.62" stroke="#c1c7cd" stroke-width="1.0" opacity="0.7" />
<circle cx="1677.79" cy="536.32" r="2.2" class="ref" />
<circle cx="1556.93" cy="452.62" r="2.8" class="latent" />
<text x="1560.93" y="448.62" class="label">PNG</text>
<line x1="1053.93" y1="234.51" x2="1147.40" y2="118.86" stroke="#c1c7cd" stroke-width="1.0" opacity="0.7" />
<circle cx="1053.93" cy="234.51" r="2.2" class="ref" />
<circle cx="1147.40" cy="118.86" r="2.8" class="latent" />
<text x="1151.40" y="114.86" class="label">POL</text>
<line x1="623.67" y1="400.88" x2="715.18" y2="365.44" stroke="#c1c7cd" stroke-width="1.0" opacity="0.7" />
<circle cx="623.67" cy="400.88" r="2.2" class="ref" />
<circle cx="715.18" cy="365.44" r="2.8" class="latent" />
<line x1="904.83" y1="300.76" x2="815.97" y2="407.63" stroke="#c1c7cd" stroke-width="1.0" opacity="0.7" />
<circle cx="904.83" cy="300.76" r="2.2" class="ref" />
<circle cx="815.97" cy="407.63" r="2.8" class="latent" />
<text x="819.97" y="403.63" class="label">PRT</text>
<line x1="665.02" y1="613.69" x2="777.60" y2="669.37" stroke="#c1c7cd" stroke-width="1.0" opacity="0.7" />
<circle cx="665.02" cy="613.69" r="2.2" class="ref" />
<circle cx="777.60" cy="669.37" r="2.8" class="latent" />
<text x="781.60" y="665.37" class="label">PRY</text>
<line x1="1204.68" y1="366.34" x2="1285.75" y2="373.47" stroke="#c1c7cd" stroke-width="1.0" opacity="0.7" />
<circle cx="1204.68" cy="366.34" r="2.2" class="ref" />
<circle cx="1285.75" cy="373.47" r="2.8" class="latent" />
<line x1="1079.04" y1="272.70" x2="919.47" y2="338.07" stroke="#c1c7cd" stroke-width="1.0" opacity="0.7" />
<circle cx="1079.04" cy="272.70" r="2.2" class="ref" />
<circle cx="919.47" cy="338.07" r="2.8" class="latent" />
<text x="923.47" y="334.07" class="label">ROU</text>
<line x1="1136.00" y1="217.42" x2="1144.48" y2="243.52" stroke="#c1c7cd" stroke-width="1.0" opacity="0.7" />
<circle cx="1136.00" cy="217.42" r="2.2" class="ref" />
<circle cx="1144.48" cy="243.52" r="2.8" class="latent" />
<text x="1148.48" y="239.52" class="label">RUS</text>
<line x1="1098.62" y1="499.55" x2="1057.88" y2="529.58" stroke="#c1c7cd" stroke-width="1.0" opacity="0.7" />
<circle cx="1098.62" cy="499.55" r="2.2" class="ref" />
<circle cx="1057.88" cy="529.58" r="2.8" class="latent" />
<line x1="1180.89" y1="369.37" x2="1297.88" y2="336.90" stroke="#c1c7cd" stroke-width="1.0" opacity="0.7" />
<circle cx="1180.89" cy="369.37" r="2.2" class="ref" />
<circle cx="1297.88" cy="336.90" r="2.8" class="latent" />
<line x1="1110.87" y1="413.77" x2="1218.74" y2="326.33" stroke="#c1c7cd" stroke-width="1.0" opacity="0.7" />
<circle cx="1110.87" cy="413.77" r="2.2" class="ref" />
<circle cx="1218.74" cy="326.33" r="2.8" class="latent" />
<line x1="863.60" y1="418.01" x2="966.17" y2="444.75" stroke="#c1c7cd" stroke-width="1.0" opacity="0.7" />
<circle cx="863.60" cy="418.01" r="2.2" class="ref" />
<circle cx="966.17" cy="444.75" r="2.8" class="latent" />
<text x="970.17" y="440.75" class="label">SEN</text>
<line x1="1463.48" y1="483.70" x2="1415.38" y2="353.12" stroke="#c1c7cd" stroke-width="1.0" opacity="0.7" />
<circle cx="1463.48" cy="483.70" r="2.2" class="ref" />
<circle cx="1415.38" cy="353.12" r="2.8" class="latent" />
<line x1="1740.86" y1="536.09" x2="1719.45" y2="526.79" stroke="#c1c7cd" stroke-width="1.0" opacity="0.7" />
<circle cx="1740.86" cy="536.09" r="2.2" class="ref" />
<circle cx="1719.45" cy="526.79" r="2.8" class="latent" />
<line x1="884.67" y1="448.53" x2="892.59" y2="449.91" stroke="#c1c7cd" stroke-width="1.0" opacity="0.7" />
<circle cx="884.67" cy="448.53" r="2.2" class="ref" />
<circle cx="892.59" cy="449.91" r="2.8" class="latent" />
<line x1="508.92" y1="423.01" x2="593.79" y2="305.99" stroke="#c1c7cd" stroke-width="1.0" opacity="0.7" />
<circle cx="508.92" cy="423.01" r="2.2" class="ref" />
<circle cx="593.79" cy="305.99" r="2.8" class="latent" />
<text x="597.79" y="301.99" class="label">SLV</text>
<line x1="1011.55" y1="275.22" x2="963.87" y2="245.52" stroke="#c1c7cd" stroke-width="1.0" opacity="0.7" />
<circle cx="1011.55" cy="275.22" r="2.2" class="ref" />
<circle cx="963.87" cy="245.52" r="2.8" class="latent" />
<line x1="1174.11" y1="479.85" x2="1115.90" y2="469.84" stroke="#c1c7cd" stroke-width="1.0" opacity="0.7" />
<circle cx="1174.11" cy="479.85" r="2.2" class="ref" />
<circle cx="1115.90" cy="469.84" r="2.8" class="latent" />
<line x1="982.67" y1="488.99" x2="990.97" y2="473.93" stroke="#c1c7cd" stroke-width="1.0" opacity="0.7" />
<circle cx="982.67" cy="488.99" r="2.2" class="ref" />
<circle cx="990.97" cy="473.93" r="2.8" class="latent" />
<line x1="677.23" y1="461.53" x2="660.90" y2="403.83" stroke="#c1c7cd" stroke-width="1.0" opacity="0.7" />
<circle cx="677.23" cy="461.53" r="2.2" class="ref" />
<circle cx="660.90" cy="403.83" r="2.8" class="latent" />
<line x1="1034.59" y1="254.61" x2="842.68" y2="195.76" stroke="#c1c7cd" stroke-width="1.0" opacity="0.7" />
<circle cx="1034.59" cy="254.61" r="2.2" class="ref" />
<circle cx="842.68" cy="195.76" r="2.8" class="latent" />
<line x1="1021.72" y1="264.84" x2="1018.86" y2="267.26" stroke="#c1c7cd" stroke-width="1.0" opacity="0.7" />
<circle cx="1021.72" cy="264.84" r="2.2" class="ref" />
<circle cx="1018.86" cy="267.26" r="2.8" class="latent" />
<line x1="1039.32" y1="199.93" x2="962.74" y2="184.89" stroke="#c1c7cd" stroke-width="1.0" opacity="0.7" />
<circle cx="1039.32" cy="199.93" r="2.2" class="ref" />
<circle cx="962.74" cy="184.89" r="2.8" class="latent" />
<line x1="1105.58" y1="619.67" x2="1122.63" y2="628.54" stroke="#c1c7cd" stroke-width="1.0" opacity="0.7" />
<circle cx="1105.58" cy="619.67" r="2.2" class="ref" />
<circle cx="1122.63" cy="628.54" r="2.8" class="latent" />
<line x1="1224.15" y1="512.64" x2="1222.09" y2="529.46" stroke="#c1c7cd" stroke-width="1.0" opacity="0.7" />
<circle cx="1224.15" cy="512.64" r="2.2" class="ref" />
<circle cx="1222.09" cy="529.46" r="2.8" class="latent" />
<line x1="1129.54" y1="326.15" x2="1059.42" y2="340.95" stroke="#c1c7cd" stroke-width="1.0" opacity="0.7" />
<circle cx="1129.54" cy="326.15" r="2.2" class="ref" />
<circle cx="1059.42" cy="340.95" r="2.8" class="latent" />
<line x1="598.25" y1="385.08" x2="589.33" y2="360.69" stroke="#c1c7cd" stroke-width="1.0" opacity="0.7" />
<circle cx="598.25" cy="385.08" r="2.2" class="ref" />
<circle cx="589.33" cy="360.69" r="2.8" class="latent" />
<line x1="1024.39" y1="430.82" x2="1063.88" y2="500.55" stroke="#c1c7cd" stroke-width="1.0" opacity="0.7" />
<circle cx="1024.39" cy="430.82" r="2.2" class="ref" />
<circle cx="1063.88" cy="500.55" r="2.8" class="latent" />
<line x1="956.06" y1="460.07" x2="906.09" y2="507.58" stroke="#c1c7cd" stroke-width="1.0" opacity="0.7" />
<circle cx="956.06" cy="460.07" r="2.2" class="ref" />
<circle cx="906.09" cy="507.58" r="2.8" class="latent" />
<line x1="1447.02" y1="422.87" x2="1491.85" y2="430.07" stroke="#c1c7cd" stroke-width="1.0" opacity="0.7" />
<circle cx="1447.02" cy="422.87" r="2.2" class="ref" />
<circle cx="1491.85" cy="430.07" r="2.8" class="latent" />
<line x1="1290.11" y1="301.35" x2="1169.54" y2="226.58" stroke="#c1c7cd" stroke-width="1.0" opacity="0.7" />
<circle cx="1290.11" cy="301.35" r="2.2" class="ref" />
<circle cx="1169.54" cy="226.58" r="2.8" class="latent" />
<line x1="1238.65" y1="304.46" x2="1317.34" y2="200.74" stroke="#c1c7cd" stroke-width="1.0" opacity="0.7" />
<circle cx="1238.65" cy="304.46" r="2.2" class="ref" />
<circle cx="1317.34" cy="200.74" r="2.8" class="latent" />
<line x1="1570.86" y1="531.88" x2="1423.21" y2="458.76" stroke="#c1c7cd" stroke-width="1.0" opacity="0.7" />
<circle cx="1570.86" cy="531.88" r="2.2" class="ref" />
<circle cx="1423.21" cy="458.76" r="2.8" class="latent" />
<text x="1427.21" y="454.76" class="label">TLS</text>
<line x1="83.65" y1="593.33" x2="64.02" y2="586.58" stroke="#c1c7cd" stroke-width="1.0" opacity="0.7" />
<circle cx="83.65" cy="593.33" r="2.2" class="ref" />
<circle cx="64.02" cy="586.58" r="2.8" class="latent" />
<line x1="646.02" y1="437.89" x2="612.30" y2="460.18" stroke="#c1c7cd" stroke-width="1.0" opacity="0.7" />
<circle cx="646.02" cy="437.89" r="2.2" class="ref" />
<circle cx="612.30" cy="460.18" r="2.8" class="latent" />
<line x1="1000.48" y1="310.14" x2="943.77" y2="418.75" stroke="#c1c7cd" stroke-width="1.0" opacity="0.7" />
<circle cx="1000.48" cy="310.14" r="2.2" class="ref" />
<circle cx="943.77" cy="418.75" r="2.8" class="latent" />
<line x1="1110.01" y1="295.84" x2="1069.86" y2="338.19" stroke="#c1c7cd" stroke-width="1.0" opacity="0.7" />
<circle cx="1110.01" cy="295.84" r="2.2" class="ref" />
<circle cx="1069.86" cy="338.19" r="2.8" class="latent" />
<text x="1073.86" y="334.19" class="label">TUR</text>
<line x1="1835.50" y1="532.20" x2="1833.56" y2="531.90" stroke="#c1c7cd" stroke-width="1.0" opacity="0.7" />
<circle cx="1835.50" cy="532.20" r="2.2" class="ref" />
<circle cx="1833.56" cy="531.90" r="2.8" class="latent" />
<line x1="1126.71" y1="520.19" x2="1072.54" y2="529.39" stroke="#c1c7cd" stroke-width="1.0" opacity="0.7" />
<circle cx="1126.71" cy="520.19" r="2.2" class="ref" />
<circle cx="1072.54" cy="529.39" r="2.8" class="latent" />
<line x1="1111.05" y1="488.46" x2="1063.76" y2="493.51" stroke="#c1c7cd" stroke-width="1.0" opacity="0.7" />
<circle cx="1111.05" cy="488.46" r="2.2" class="ref" />
<circle cx="1063.76" cy="493.51" r="2.8" class="latent" />
<line x1="1100.82" y1="243.34" x2="1221.11" y2="240.69" stroke="#c1c7cd" stroke-width="1.0" opacity="0.7" />
<circle cx="1100.82" cy="243.34" r="2.2" class="ref" />
<circle cx="1221.11" cy="240.69" r="2.8" class="latent" />
<text x="1225.11" y="236.69" class="label">UKR</text>
<line x1="672.78" y1="660.59" x2="637.80" y2="655.30" stroke="#c1c7cd" stroke-width="1.0" opacity="0.7" />
<circle cx="672.78" cy="660.59" r="2.2" class="ref" />
<circle cx="637.80" cy="655.30" r="2.8" class="latent" />
<text x="641.80" y="651.30" class="label">URY</text>
<line x1="569.12" y1="299.87" x2="569.12" y2="299.87" stroke="#7b8794" stroke-width="1.8" opacity="0.7" />
<circle cx="569.12" cy="299.87" r="2.2" class="anchor" />
<circle cx="569.12" cy="299.87" r="2.8" class="anchor" />
<text x="573.12" y="295.87" class="label">USA</text>
<line x1="1292.50" y1="288.06" x2="1207.22" y2="202.47" stroke="#c1c7cd" stroke-width="1.0" opacity="0.7" />
<circle cx="1292.50" cy="288.06" r="2.2" class="ref" />
<circle cx="1207.22" cy="202.47" r="2.8" class="latent" />
<line x1="647.08" y1="425.45" x2="630.80" y2="436.61" stroke="#c1c7cd" stroke-width="1.0" opacity="0.7" />
<circle cx="647.08" cy="425.45" r="2.2" class="ref" />
<circle cx="630.80" cy="436.61" r="2.8" class="latent" />
<line x1="1473.25" y1="387.30" x2="1607.26" y2="418.21" stroke="#c1c7cd" stroke-width="1.0" opacity="0.7" />
<circle cx="1473.25" cy="387.30" r="2.2" class="ref" />
<circle cx="1607.26" cy="418.21" r="2.8" class="latent" />
<line x1="1782.25" y1="576.73" x2="1780.45" y2="574.14" stroke="#c1c7cd" stroke-width="1.0" opacity="0.7" />
<circle cx="1782.25" cy="576.73" r="2.2" class="ref" />
<circle cx="1780.45" cy="574.14" r="2.8" class="latent" />
<line x1="100.78" y1="557.62" x2="66.51" y2="549.10" stroke="#c1c7cd" stroke-width="1.0" opacity="0.7" />
<circle cx="100.78" cy="557.62" r="2.2" class="ref" />
<circle cx="66.51" cy="549.10" r="2.8" class="latent" />
<line x1="1089.37" y1="615.87" x2="1097.52" y2="593.67" stroke="#c1c7cd" stroke-width="1.0" opacity="0.7" />
<circle cx="1089.37" cy="615.87" r="2.2" class="ref" />
<circle cx="1097.52" cy="593.67" r="2.8" class="latent" />
<text x="1101.52" y="589.67" class="label">ZAF</text>
<line x1="1089.90" y1="565.28" x2="1042.54" y2="524.33" stroke="#c1c7cd" stroke-width="1.0" opacity="0.7" />
<circle cx="1089.90" cy="565.28" r="2.2" class="ref" />
<circle cx="1042.54" cy="524.33" r="2.8" class="latent" />
<line x1="1103.61" y1="577.17" x2="1089.56" y2="577.64" stroke="#c1c7cd" stroke-width="1.0" opacity="0.7" />
<circle cx="1103.61" cy="577.17" r="2.2" class="ref" />
<circle cx="1089.56" cy="577.64" r="2.8" class="latent" />
<circle cx="80" cy="68" r="3" class="ref" />
<text x="92" y="72" class="legend">Reference position</text>
<circle cx="240" cy="68" r="3" class="latent" />
<text x="252" y="72" class="legend">Latent PPML position</text>
</svg>